<?xml version="1.0" encoding="UTF-8"?><svg id="uuid-7d83d7a4-45ac-4c0e-8f69-fa2d7a33c991" xmlns="http://www.w3.org/2000/svg" width="238.21" height="127.1" viewBox="0 0 238.21 127.1"><g id="uuid-be7756da-4d60-4bca-897c-fa91bacd55f3"><path d="M0,115.33v-31.57h6.7v1.91c0,.43-.07.79-.22,1.1-.15.3-.44.62-.86.95l-1.53,1.19,1.53,1.96,5.53-4.36c1.46-1.13,2.69-1.94,3.68-2.41.99-.48,2.02-.71,3.08-.71,1.63,0,2.94.51,3.92,1.52.99,1.01,1.48,2.45,1.48,4.31v6.78c0,3.26-.93,5.75-2.8,7.48s-4.64,2.59-8.32,2.59h-.68c-.96,0-1.9-.09-2.81-.27-.91-.18-1.59-.35-2.04-.52v10.06H0ZM6.65,99.25c1.12.58,2.62.87,4.49.87h.87c3.08,0,4.61-1.44,4.61-4.32v-3.96c0-.66-.17-1.18-.51-1.54-.34-.36-.81-.54-1.4-.54-.51,0-1.02.14-1.52.41-.5.28-1.21.78-2.14,1.5l-4.4,3.53v4.04Z" style="fill:#fff;"/><path d="M36.31,105.95c-3.94,0-6.83-.86-8.66-2.57s-2.75-4.27-2.75-7.65v-2.13c0-3.4.91-5.97,2.74-7.69,1.83-1.72,4.72-2.58,8.67-2.58h1.38c3.93,0,6.8.86,8.63,2.58,1.83,1.72,2.74,4.28,2.74,7.69v2.13c0,3.39-.91,5.94-2.74,7.65s-4.71,2.57-8.63,2.57h-1.38ZM31.61,95.56c0,2.96,1.57,4.44,4.7,4.44h1.38c3.12,0,4.68-1.48,4.68-4.44v-1.79c0-1.5-.38-2.63-1.14-3.37-.76-.74-1.94-1.12-3.54-1.12h-1.38c-3.13,0-4.7,1.5-4.7,4.49v1.79Z" style="fill:#fff;"/><path d="M56.55,105.53l-7.7-20.11v-1.66h6.31l4.61,11.97c.28.88.43,1.58.43,2.1v2.08h2.49v-1.28c0-.57.17-1.13.51-1.68l1.23-2.02-4.89-9.53v-1.66h5.72l1.13,2.17c.17.33.29.55.35.68.06.13.13.33.2.61.07.28.11.58.11.9v3.08h2.51v-3.08c0-.13,0-.25.01-.37,0-.12.02-.22.03-.31s.04-.18.06-.29c.03-.11.05-.19.06-.25s.05-.14.1-.26c.05-.11.09-.19.11-.22.02-.04.06-.12.13-.25.06-.13.1-.21.12-.26l1.17-2.17h5.68v1.7l-4.89,9.48,1.23,2.02c.37.6.55,1.16.55,1.68v1.28h2.49v-2.08c0-.62.13-1.32.38-2.1l4.64-11.97h6.25v1.66l-7.7,20.11h-7.19l-2.57-4.19c-.47-.72-.7-1.45-.7-2.17v-1.74h-2.47v1.74c0,.7-.22,1.42-.66,2.17l-2.57,4.19h-7.27Z" style="fill:#fff;"/><path d="M98.96,106.06c-3.95,0-6.85-.86-8.7-2.57s-2.76-4.24-2.76-7.59v-2.38c0-3.4.92-5.97,2.75-7.7,1.84-1.73,4.74-2.59,8.71-2.59h1.62c3.88,0,6.73.86,8.55,2.59,1.81,1.73,2.72,4.3,2.72,7.7v2.74h-17.63c.04,1.46.44,2.53,1.18,3.2.75.67,1.93,1.01,3.56,1.01h1.74c1.49,0,2.55-.18,3.18-.54.63-.36,1.04-.9,1.22-1.63h6.57v1.62c-.65,1.98-1.85,3.51-3.58,4.56-1.74,1.06-4.24,1.58-7.52,1.58h-1.62ZM94.39,92.39h10.76c-.11-1.36-.5-2.33-1.17-2.92-.67-.59-1.76-.88-3.27-.88h-1.74c-1.53,0-2.64.29-3.34.88-.69.59-1.11,1.56-1.23,2.92Z" style="fill:#fff;"/><path d="M113.67,105.53v-21.77h6.7v1.87c0,.43-.07.79-.22,1.1-.15.3-.44.62-.86.95l-1.53,1.23,1.57,1.96,5.19-4.1c1.55-1.23,2.84-2.11,3.88-2.64,1.04-.52,2.12-.79,3.22-.79,1.46,0,2.62.47,3.49,1.4s1.3,2.34,1.3,4.21v8.57h-6.7v-5.57c0-1.33-.57-2-1.7-2-.47,0-.95.14-1.45.43s-1.18.77-2.04,1.45l-4.19,3.32v10.4h-6.66Z" style="fill:#fff;"/><path d="M138.65,115.33v-31.57h6.7v1.91c0,.43-.07.79-.22,1.1-.15.3-.44.62-.86.95l-1.53,1.19,1.53,1.96,5.53-4.36c1.46-1.13,2.69-1.94,3.68-2.41.99-.48,2.02-.71,3.08-.71,1.63,0,2.94.51,3.92,1.52.99,1.01,1.48,2.45,1.48,4.31v6.78c0,3.26-.93,5.75-2.8,7.48-1.86,1.73-4.64,2.59-8.32,2.59h-.68c-.97,0-1.9-.09-2.81-.27-.91-.18-1.59-.35-2.04-.52v10.06h-6.66ZM145.3,99.25c1.12.58,2.61.87,4.49.87h.87c3.07,0,4.61-1.44,4.61-4.32v-3.96c0-.66-.17-1.18-.51-1.54-.34-.36-.81-.54-1.4-.54-.51,0-1.02.14-1.52.41-.5.28-1.21.78-2.14,1.5l-4.4,3.53v4.04Z" style="fill:#fff;"/><path d="M169.22,105.91c-1.63,0-2.94-.51-3.92-1.52-.99-1.01-1.48-2.45-1.48-4.31v-6.78c0-3.26.94-5.75,2.82-7.48,1.88-1.73,4.7-2.59,8.45-2.59h1.7c3.19,0,6.63.76,10.31,2.27v20.03h-6.7v-1.96c0-.43.07-.79.22-1.1.15-.3.44-.62.86-.95l1.53-1.15-1.53-2-5.53,4.36c-1.49,1.16-2.72,1.98-3.7,2.46-.98.48-1.99.71-3.04.71ZM170.47,97.43c0,.67.17,1.18.51,1.54.34.36.81.54,1.4.54.52,0,1.03-.13,1.52-.4.49-.27,1.2-.77,2.14-1.51l4.4-3.53v-4.04c-1.5-.58-3.04-.87-4.61-.87h-.75c-3.08,0-4.61,1.44-4.61,4.32v3.96Z" style="fill:#fff;"/><path d="M189.5,105.53v-21.77h6.7v1.87c0,.43-.07.79-.22,1.1-.15.3-.44.62-.86.95l-1.53,1.23,1.57,1.96,5.19-4.1c1.55-1.23,2.84-2.11,3.88-2.64,1.04-.52,2.12-.79,3.22-.79,1.46,0,2.62.47,3.49,1.4s1.3,2.34,1.3,4.21v8.57h-6.7v-5.57c0-1.33-.57-2-1.7-2-.47,0-.95.14-1.45.43s-1.18.77-2.04,1.45l-4.19,3.32v10.4h-6.66Z" style="fill:#fff;"/><path d="M214.48,105.53v-31.57h6.66v17.56c0,.57-.06,1-.17,1.31-.12.31-.33.69-.66,1.16l-2.17,3.15,2,1.47,10.63-14.84h6.74v1.62l-5.7,8.01,3.13,5.4c.17.31.34.52.5.62.16.1.42.15.78.15h2v5.97h-4.49c-.99,0-1.76-.17-2.3-.5-.54-.33-1.04-.9-1.49-1.71l-1.4-2.36c-.27-.47-.44-.89-.52-1.26-.08-.38-.12-.88-.12-1.52v-1.4h-2.49v1.4c0,.64-.05,1.14-.15,1.51-.1.37-.31.78-.64,1.24l-3.17,4.61h-6.97Z" style="fill:#fff;"/><path d="M30.49,118.68h2.79v1.08h-1.63v2.33h1.15v1.08h-1.15v2.73h1.74v1.08h-2.9v-8.29Z" style="fill:#fff;"/><path d="M46.59,126.98v-8.29h1.16v7.21h1.63v1.08h-2.79Z" style="fill:#fff;"/><path d="M62.53,118.68h2.79v1.08h-1.63v2.33h1.15v1.08h-1.15v2.73h1.74v1.08h-2.9v-8.29Z" style="fill:#fff;"/><path d="M80.73,124.03h1.15c.02.4.03.69.03.87,0,1.47-.56,2.21-1.68,2.21s-1.63-.66-1.63-1.99v-4.57c0-1.32.54-1.99,1.63-1.99s1.68.72,1.68,2.16c0,.16,0,.38-.02.66h-1.16c.02-.23.02-.42.02-.56,0-.4-.02-.68-.06-.82-.07-.24-.22-.36-.46-.36-.18,0-.31.06-.38.19-.06.11-.09.35-.09.72v4.57c0,.36.03.6.09.72.07.13.2.19.38.19.21,0,.35-.09.42-.26.06-.16.1-.45.1-.86,0-.22,0-.52-.02-.89Z" style="fill:#fff;"/><path d="M95.97,126.98v-7.22h-1.09v-1.08h3.38v1.08h-1.13v7.22h-1.16Z" style="fill:#fff;"/><path d="M111.28,118.68h1.14c.62,0,1.06.08,1.31.24.54.34.81,1.02.81,2.07,0,.54-.04.96-.13,1.25-.07.22-.22.48-.46.78l.81,3.96h-1.25l-.66-3.57c-.15.02-.29.04-.42.04v3.52h-1.16v-8.29ZM112.44,122.29h.16c.35,0,.59-.1.7-.3.07-.13.11-.51.11-1.13,0-.43-.05-.71-.14-.84-.12-.17-.34-.26-.67-.26h-.16v2.53Z" style="fill:#fff;"/><path d="M129.22,118.68v8.29h-1.16v-8.29h1.16Z" style="fill:#fff;"/><path d="M144.76,124.03h1.15c.02.4.03.69.03.87,0,1.47-.56,2.21-1.68,2.21s-1.63-.66-1.63-1.99v-4.57c0-1.32.54-1.99,1.63-1.99s1.68.72,1.68,2.16c0,.16,0,.38-.02.66h-1.16c.02-.23.02-.42.02-.56,0-.4-.02-.68-.06-.82-.07-.24-.22-.36-.46-.36-.18,0-.31.06-.38.19-.06.11-.09.35-.09.72v4.57c0,.36.03.6.09.72.07.13.2.19.38.19.21,0,.35-.09.42-.26.06-.16.1-.45.1-.86,0-.22,0-.52-.02-.89Z" style="fill:#fff;"/><path d="M160.47,125.11l-.21,1.86h-1.12l1.13-8.29h1.5l1.08,8.29h-1.14l-.21-1.86h-1.04ZM161.38,124.04l-.4-3.85-.39,3.85h.8Z" style="fill:#fff;"/><path d="M176.12,126.98v-8.29h1.16v7.21h1.63v1.08h-2.79Z" style="fill:#fff;"/><path d="M192.07,124.58l1.14-.06c0,.31,0,.54,0,.71.03.53.22.8.59.8s.52-.28.52-.83c0-.27-.06-.55-.19-.83-.09-.18-.26-.45-.52-.8l-.57-.85c-.31-.46-.53-.84-.66-1.15-.18-.42-.27-.83-.27-1.23,0-.53.14-.95.43-1.26.31-.35.74-.53,1.28-.53s.96.2,1.24.6c.22.31.33.72.34,1.23v.42l-1.14.12c0-.36-.01-.61-.03-.76-.05-.35-.21-.52-.48-.52-.32,0-.49.26-.49.78,0,.29.07.56.2.81.08.15.29.47.61.97l.58.86c.55.81.83,1.59.83,2.34,0,.45-.1.81-.29,1.09-.28.42-.75.63-1.4.63-.62,0-1.08-.21-1.39-.63-.17-.22-.27-.46-.32-.71-.03-.2-.05-.45-.05-.74,0-.13,0-.28.02-.44Z" style="fill:#fff;"/><path d="M138.8,4.83l-39.92,7.1v-4.86l14.44-2.06V.9c7.83,0,24.83-1.42,26.07-.7.81.33,1.38,1.06,1.49,1.92.17,1.31-.75,2.52-2.08,2.7Z" style="fill:#efc04d;"/><path d="M138.8,14.45l-39.92,7.11v-4.87l39.25-7c.18-.03.33-.04.5-.03.84.03,1.63.53,2.01,1.28.8,1.61-.23,3.32-1.83,3.51Z" style="fill:#efc04d;"/><path d="M138.8,24.08l-39.92,7.11v-4.86l39.25-7.01c.18-.03.33-.04.5-.03.84.03,1.63.53,2.01,1.28.8,1.61-.23,3.32-1.83,3.51Z" style="fill:#efc04d;"/><path d="M138.8,33.71l-35.1,6.42v8.9h9.63v-5.47l4.81-.69v6.16h2.41v4.82c0,2.65-2.15,4.82-4.82,4.82h-2.4c0,2.65-2.16,4.81-4.82,4.81s-4.81-2.15-4.81-4.81h-2.41c-2.65,0-4.81-2.15-4.81-4.81v-4.83h2.4v-13.09l39.25-7.01s.02,0,.02,0c1.09-.15,2.2.47,2.59,1.5.59,1.53-.42,3.08-1.94,3.28Z" style="fill:#efc04d;"/></g></svg>