<?xml version="1.0" encoding="UTF-8"?>
<svg id="Layer_2" data-name="Layer 2" xmlns="http://www.w3.org/2000/svg" viewBox="0 0 274.06 40.51">
  <defs>
    <style>
      .cls-1 {
        fill: #fff;
      }

      .cls-2 {
        fill: #d8b041;
      }
    </style>
  </defs>
  <g id="Layer_1-2" data-name="Layer 1">
    <g>
      <path class="cls-2" d="M25.77,4.8L1.46,9.12v-2.96l8.79-1.26v-2.49c4.77,0,15.12-.86,15.87-.43.49.2.84.65.9,1.17.11.8-.46,1.54-1.26,1.64Z"/>
      <path class="cls-2" d="M25.77,10.66L1.46,14.99v-2.97l23.9-4.26c.11-.02.2-.02.3-.02.51.02.99.32,1.22.78.49.98-.14,2.02-1.11,2.14Z"/>
      <path class="cls-2" d="M25.77,16.52L1.46,20.85v-2.96l23.9-4.27c.11-.02.2-.02.3-.02.51.02.99.32,1.22.78.49.98-.14,2.02-1.11,2.14Z"/>
      <path class="cls-2" d="M25.77,22.38l-21.37,3.91v5.42h5.86v-3.33l2.93-.42v3.75h1.47v2.93c0,1.62-1.31,2.93-2.93,2.93h-1.46c0,1.62-1.32,2.93-2.93,2.93s-2.93-1.31-2.93-2.93h-1.47c-1.62,0-2.93-1.31-2.93-2.93v-2.94h1.46v-7.97l23.9-4.27s0,0,.01,0c.66-.09,1.34.29,1.58.91.36.93-.26,1.87-1.18,2Z"/>
    </g>
    <g>
      <path class="cls-1" d="M47.81,39.3V9.31h6.36v1.82c0,.4-.07.75-.21,1.04-.14.29-.41.59-.82.9l-1.45,1.13,1.45,1.86,5.25-4.14c1.39-1.08,2.55-1.84,3.49-2.29.94-.45,1.92-.68,2.93-.68,1.55,0,2.79.48,3.73,1.44.93.96,1.4,2.33,1.4,4.09v6.44c0,3.1-.89,5.47-2.66,7.11-1.77,1.64-4.41,2.46-7.91,2.46h-.65c-.92,0-1.8-.08-2.67-.25-.86-.17-1.51-.33-1.94-.49v9.55h-6.32ZM54.13,24.03c1.06.55,2.48.83,4.26.83h.83c2.92,0,4.38-1.37,4.38-4.1v-3.76c0-.63-.16-1.12-.48-1.46-.32-.34-.77-.51-1.33-.51-.48,0-.97.13-1.44.39-.48.26-1.15.74-2.03,1.42l-4.18,3.35v3.83Z"/>
      <path class="cls-1" d="M82.3,30.39c-3.74,0-6.49-.81-8.23-2.44-1.74-1.63-2.62-4.05-2.62-7.27v-2.02c0-3.23.87-5.67,2.61-7.3,1.74-1.64,4.48-2.45,8.24-2.45h1.31c3.73,0,6.46.82,8.2,2.45,1.74,1.63,2.61,4.07,2.61,7.3v2.02c0,3.22-.87,5.64-2.61,7.27-1.74,1.63-4.47,2.44-8.2,2.44h-1.31ZM77.84,20.52c0,2.81,1.49,4.22,4.46,4.22h1.31c2.96,0,4.44-1.41,4.44-4.22v-1.7c0-1.43-.36-2.49-1.08-3.2-.72-.71-1.84-1.06-3.36-1.06h-1.31c-2.98,0-4.46,1.42-4.46,4.26v1.7Z"/>
      <path class="cls-1" d="M101.52,29.99l-7.31-19.1v-1.58h6l4.38,11.37c.27.83.4,1.5.4,2v1.98h2.36v-1.21c0-.54.16-1.07.48-1.6l1.17-1.92-4.64-9.05v-1.58h5.43l1.07,2.06c.16.31.27.53.33.65.06.12.13.31.19.58.07.26.1.55.1.86v2.93h2.38v-2.93c0-.12,0-.24,0-.35,0-.12.02-.21.03-.29s.03-.17.06-.27c.03-.1.05-.18.06-.23s.04-.13.09-.24c.05-.11.08-.18.1-.21.02-.03.06-.11.12-.23.06-.12.1-.2.11-.24l1.11-2.06h5.39v1.62l-4.64,9.01,1.17,1.92c.35.57.53,1.1.53,1.6v1.21h2.36v-1.98c0-.59.12-1.26.36-2l4.4-11.37h5.94v1.58l-7.31,19.1h-6.83l-2.44-3.98c-.44-.69-.67-1.37-.67-2.06v-1.65h-2.34v1.65c0,.66-.21,1.35-.63,2.06l-2.44,3.98h-6.91Z"/>
      <path class="cls-1" d="M141.81,30.49c-3.76,0-6.51-.81-8.26-2.44-1.75-1.63-2.63-4.03-2.63-7.21v-2.26c0-3.23.87-5.67,2.62-7.31,1.74-1.64,4.5-2.46,8.27-2.46h1.53c3.69,0,6.39.82,8.12,2.46,1.72,1.64,2.58,4.08,2.58,7.31v2.6h-16.74c.04,1.39.42,2.4,1.12,3.04.71.64,1.83.96,3.38.96h1.66c1.41,0,2.42-.17,3.02-.52.6-.34.98-.86,1.16-1.54h6.24v1.53c-.62,1.88-1.75,3.33-3.4,4.33-1.65,1-4.03,1.5-7.14,1.5h-1.53ZM137.46,17.51h10.22c-.11-1.29-.48-2.22-1.11-2.78-.63-.56-1.67-.84-3.11-.84h-1.66c-1.45,0-2.51.28-3.17.84-.66.56-1.05,1.48-1.17,2.78Z"/>
      <path class="cls-1" d="M155.78,29.99V9.31h6.36v1.78c0,.4-.07.75-.21,1.04-.14.29-.41.59-.82.9l-1.45,1.17,1.49,1.86,4.93-3.9c1.47-1.17,2.7-2,3.68-2.5.99-.5,2.01-.75,3.06-.75,1.39,0,2.49.44,3.31,1.33.82.89,1.23,2.22,1.23,4v8.14h-6.36v-5.29c0-1.26-.54-1.9-1.62-1.9-.44,0-.9.13-1.37.4s-1.12.73-1.94,1.37l-3.98,3.15v9.87h-6.32Z"/>
      <path class="cls-1" d="M179.5,39.3V9.31h6.36v1.82c0,.4-.07.75-.21,1.04-.14.29-.41.59-.82.9l-1.45,1.13,1.45,1.86,5.25-4.14c1.39-1.08,2.55-1.84,3.49-2.29.94-.45,1.92-.68,2.93-.68,1.55,0,2.79.48,3.73,1.44.94.96,1.4,2.33,1.4,4.09v6.44c0,3.1-.88,5.47-2.66,7.11-1.77,1.64-4.41,2.46-7.9,2.46h-.65c-.92,0-1.81-.08-2.67-.25-.86-.17-1.51-.33-1.94-.49v9.55h-6.32ZM185.82,24.03c1.06.55,2.48.83,4.26.83h.83c2.92,0,4.38-1.37,4.38-4.1v-3.76c0-.63-.16-1.12-.48-1.46-.32-.34-.77-.51-1.33-.51-.48,0-.97.13-1.44.39-.48.26-1.15.74-2.03,1.42l-4.18,3.35v3.83Z"/>
      <path class="cls-1" d="M208.53,30.35c-1.55,0-2.79-.48-3.73-1.44-.94-.96-1.4-2.33-1.4-4.09v-6.44c0-3.09.89-5.46,2.68-7.11,1.78-1.64,4.46-2.46,8.03-2.46h1.62c3.03,0,6.29.72,9.79,2.16v19.02h-6.36v-1.86c0-.4.07-.75.21-1.04.14-.29.41-.59.82-.9l1.45-1.09-1.45-1.9-5.25,4.14c-1.41,1.11-2.58,1.88-3.51,2.33-.93.45-1.89.68-2.89.68ZM209.73,22.29c0,.63.16,1.12.48,1.46.32.34.77.51,1.33.51.5,0,.98-.13,1.44-.38.47-.26,1.14-.73,2.03-1.43l4.18-3.35v-3.83c-1.43-.55-2.89-.83-4.38-.83h-.71c-2.92,0-4.38,1.37-4.38,4.1v3.76Z"/>
      <path class="cls-1" d="M227.8,29.99V9.31h6.36v1.78c0,.4-.07.75-.21,1.04-.14.29-.41.59-.82.9l-1.45,1.17,1.49,1.86,4.93-3.9c1.47-1.17,2.7-2,3.68-2.5.99-.5,2.01-.75,3.06-.75,1.39,0,2.49.44,3.31,1.33s1.23,2.22,1.23,4v8.14h-6.36v-5.29c0-1.26-.54-1.9-1.62-1.9-.44,0-.9.13-1.37.4s-1.12.73-1.94,1.37l-3.98,3.15v9.87h-6.32Z"/>
      <path class="cls-1" d="M251.52,29.99V0h6.32v16.68c0,.54-.06.95-.16,1.24-.11.29-.32.66-.63,1.1l-2.06,2.99,1.9,1.39,10.1-14.1h6.4v1.53l-5.41,7.61,2.97,5.13c.16.3.32.49.48.58.15.09.4.14.74.14h1.9v5.67h-4.26c-.94,0-1.67-.16-2.18-.48-.51-.32-.98-.86-1.42-1.63l-1.33-2.24c-.26-.44-.42-.84-.5-1.2-.07-.36-.11-.84-.11-1.44v-1.33h-2.36v1.33c0,.61-.05,1.08-.14,1.43-.09.35-.3.74-.6,1.17l-3.01,4.38h-6.62Z"/>
    </g>
  </g>
</svg>
