<?xml version="1.0" encoding="UTF-8"?>
<svg id="Layer_2" data-name="Layer 2" xmlns="http://www.w3.org/2000/svg" viewBox="0 0 256.14 70.92">
  <defs>
    <style>
      .cls-1 {
        fill: #fff;
      }

      .cls-2 {
        fill: #0fbbbb;
      }
    </style>
  </defs>
  <g id="Layer_1-2" data-name="Layer 1">
    <path class="cls-1" d="M235.89,6.16h7.87v1.79h-2.93v7.9h-1.9v-7.9h-3.04v-1.79ZM244.97,6.16h3.04l2.51,8.21,2.55-8.21h3.08v9.69h-1.9v-7.79l-2.39,7.79h-2.62l-2.39-7.71v7.71h-1.86V6.16Z"/>
    <path class="cls-1" d="M21.6,48.83c0,8.25,4.58,15.36,11.27,19.14-3.22,1.82-6.85,2.91-10.78,2.91-12.18,0-22.09-9.87-22.09-22.09s9.87-22.09,22.09-22.09c3.93,0,7.6,1.13,10.78,2.91-6.69,3.78-11.27,10.89-11.27,19.14"/>
    <path class="cls-2" d="M32.98,11.01c0,6.09-4.92,11.01-11.01,11.01s-10.97-4.92-10.97-11.01S15.92,0,21.98,0s11.01,4.92,11.01,11.01"/>
    <path class="cls-1" d="M78.79,70.88h-17.21c-9.72,0-17.59-5.98-17.59-13.35V13.35c0-7.38-3.1-13.35-12.82-13.35h17.21c9.72,0,17.59,5.98,17.59,13.35v44.22c0,7.38,3.1,13.35,12.82,13.35"/>
    <path class="cls-1" d="M138.45,51.25v7.11h-16.72v-7.11h3.71l-2.57-6.35h-14.68l-2.57,6.35h3.52v7.11h-16.72v-7.11h4.24l14.34-35.63h8.96l14.45,35.63h4.05ZM119.99,37.79l-4.46-11.04-4.43,11.04h8.93-.04Z"/>
    <polygon class="cls-1" points="176.16 45.92 176.16 58.4 138.98 58.4 138.98 51.25 143.71 51.25 143.71 22.77 138.98 22.77 138.98 15.66 156.79 15.66 156.79 22.77 152.03 22.77 152.03 51.25 169.05 51.25 169.05 45.92 176.16 45.92"/>
    <polygon class="cls-1" points="235.17 51.25 235.17 58.4 217.35 58.4 217.35 51.25 221.89 51.25 220.72 34.69 210.54 58.4 201.77 58.4 191.37 34.19 189.85 51.25 194.35 51.25 194.35 58.4 176.54 58.4 176.54 51.25 181.53 51.25 184.03 22.77 179.49 22.77 179.49 15.66 192.43 15.66 195.49 22.77 206.16 47.55 219.85 15.66 232.78 15.66 232.78 22.77 228.21 22.77 230.21 51.25 235.17 51.25"/>
  </g>
</svg>