<?xml version="1.0" encoding="utf-8"?>
<!-- Generator: Adobe Illustrator 15.1.0, SVG Export Plug-In . SVG Version: 6.00 Build 0)  -->
<!DOCTYPE svg PUBLIC "-//W3C//DTD SVG 1.1//EN" "http://www.w3.org/Graphics/SVG/1.1/DTD/svg11.dtd">
<svg version="1.1" id="Layer_1" xmlns="http://www.w3.org/2000/svg" xmlns:xlink="http://www.w3.org/1999/xlink" x="0px" y="0px"
	 width="300px" height="141.51px" viewBox="0 0 300 141.51" enable-background="new 0 0 300 141.51" xml:space="preserve">
<rect fill="none" width="300" height="141.51"/>
<path fill="#FFFFFF" d="M261.716,48.093c-10.754-5.118-25.959-9.461-44.098-12.605l1.725-5.758l-8.027-1.39
	c-20.285-3.516-41.666-5.295-63.552-5.295c-22.314,0-43.124,1.731-63.625,5.295l-8.028,1.394l1.728,5.765
	c-18.113,3.146-33.297,7.492-44.035,12.606C19.89,54.738,12.834,62.76,12.834,71.946c0,9.188,7.056,17.208,20.967,23.836
	c10.719,5.109,25.869,9.444,43.943,12.59l-1.742,5.538l8.132,1.416c20.677,3.605,41.487,5.355,63.628,5.355
	c22.009,0,42.795-1.75,63.555-5.355l8.136-1.413l-1.739-5.526c18.096-3.145,33.268-7.481,44.001-12.59
	c13.929-6.632,20.992-14.657,20.992-23.851S275.645,54.728,261.716,48.093 M260.689,93.639
	c-11.107,5.287-26.979,9.706-46.076,12.849l1.739,5.538l-5.446,0.948c-20.621,3.578-41.275,5.319-63.143,5.319
	c-21.999,0-42.68-1.742-63.216-5.321l-5.445-0.948l1.746-5.552C61.771,103.331,45.92,98.91,34.83,93.626
	c-13.01-6.199-19.607-13.492-19.607-21.681c0-8.187,6.599-15.481,19.608-21.681c11.103-5.291,26.975-9.716,46.075-12.861
	l-1.733-5.775l5.375-0.935c20.361-3.539,41.04-5.258,63.215-5.258c21.75,0,42.996,1.767,63.142,5.258l5.375,0.934l-1.729,5.767
	c19.126,3.142,35.019,7.566,46.138,12.86c13.023,6.2,19.63,13.499,19.63,21.691C280.319,80.139,273.713,87.438,260.689,93.639"/>
<polygon fill="#FFFFFF" points="134.309,105.008 136.414,105.073 135.454,102.039 "/>
<polygon fill="#FFFFFF" points="162.688,39.394 161.228,43.117 163.871,43.216 "/>
<polygon fill="#FFFFFF" points="152.381,105.207 154.486,105.176 153.391,102.188 "/>
<path fill="#FFFFFF" d="M161.567,71.613c-0.17-6.091-3.047-11.024-8.967-10.911c-5.57,0.118-8.443,4.529-8.268,11.318
	c0.264,7.253,4.353,10.91,9.055,10.793C158.698,82.697,161.919,79.389,161.567,71.613"/>
<path fill="#FFFFFF" d="M177.831,41.61c0.325-0.217,0.51-0.548,0.544-1c0.034-0.45-0.097-0.808-0.39-1.072
	c-0.292-0.262-0.728-0.416-1.309-0.458l-0.555-0.042l-0.208,2.791l0.553,0.041C177.048,41.916,177.502,41.827,177.831,41.61"/>
<path fill="#FFFFFF" d="M210.162,40.155l1.741-5.822l-1.581-0.276c-19.957-3.456-41.007-5.208-62.559-5.208
	c-21.978,0-42.466,1.704-62.63,5.208l-1.583,0.276l1.747,5.832c-41.781,6.357-66.659,18.198-66.659,31.78
	c0,13.583,24.876,25.422,66.652,31.773l-1.761,5.609l1.604,0.279c20.342,3.544,40.831,5.27,62.63,5.27
	c21.67,0,42.133-1.726,62.559-5.27l1.603-0.277l-1.759-5.599c41.828-6.35,66.736-18.192,66.736-31.786
	C276.902,58.354,251.99,46.51,210.162,40.155 M173.351,36.55l4.577,0.342c0.632,0.051,1.173,0.183,1.63,0.403
	c0.456,0.221,0.825,0.502,1.108,0.845c0.279,0.345,0.479,0.731,0.604,1.163c0.124,0.433,0.169,0.888,0.131,1.367
	c-0.064,0.862-0.323,1.544-0.778,2.048c-0.455,0.504-1.097,0.822-1.922,0.949l3.209,4.907l-3.661-0.276l-2.479-4.563l-0.329,4.351
	l-2.939-0.222L173.351,36.55z M161.204,35.978l3.22,0.121l3.893,11.5l-3.143-0.115l-0.604-1.998l-4.212-0.156l-0.749,1.946
	l-3.144-0.12L161.204,35.978z M141.72,38.997c0.285-0.737,0.688-1.37,1.217-1.893c0.524-0.521,1.159-0.929,1.9-1.222
	c0.743-0.292,1.57-0.438,2.483-0.441c1.182,0,2.222,0.254,3.115,0.765c0.896,0.51,1.604,1.3,2.126,2.374l-2.797,1.162
	c-0.262-0.62-0.601-1.065-1.017-1.336c-0.419-0.273-0.893-0.406-1.425-0.404c-0.441,0-0.842,0.084-1.203,0.251
	c-0.361,0.164-0.667,0.4-0.924,0.708c-0.255,0.308-0.456,0.676-0.6,1.109c-0.147,0.429-0.219,0.91-0.219,1.441
	c0.004,0.482,0.066,0.929,0.191,1.34c0.126,0.413,0.314,0.767,0.568,1.07c0.25,0.3,0.562,0.532,0.932,0.697
	c0.371,0.164,0.804,0.247,1.295,0.247c0.292,0,0.573-0.036,0.846-0.101c0.267-0.065,0.511-0.172,0.726-0.319
	c0.218-0.143,0.396-0.332,0.535-0.564c0.14-0.23,0.235-0.513,0.283-0.844l-2.42,0.004l-0.003-2.288l5.852-0.01
	c0.002,0.605-0.023,1.148-0.072,1.643c-0.051,0.491-0.147,0.948-0.299,1.369c-0.21,0.592-0.494,1.119-0.855,1.573
	c-0.36,0.458-0.784,0.842-1.268,1.146c-0.487,0.31-1.022,0.543-1.602,0.703c-0.583,0.162-1.197,0.244-1.837,0.244
	c-0.883,0-1.688-0.143-2.415-0.432c-0.729-0.29-1.355-0.696-1.878-1.224c-0.521-0.526-0.929-1.157-1.219-1.896
	c-0.293-0.736-0.439-1.547-0.443-2.442C141.294,40.543,141.434,39.732,141.72,38.997 M129.14,36.167l0.249,6.167
	c0.013,0.33,0.039,0.668,0.075,1.015c0.041,0.343,0.129,0.655,0.264,0.929c0.139,0.274,0.345,0.496,0.625,0.659
	c0.278,0.164,0.661,0.235,1.15,0.219c0.494-0.021,0.869-0.126,1.126-0.311c0.258-0.188,0.448-0.421,0.568-0.706
	c0.119-0.286,0.184-0.604,0.194-0.951c0.011-0.348,0.011-0.687-0.003-1.016l-0.247-6.166l2.933-0.12l0.263,6.573
	c0.071,1.764-0.279,3.069-1.053,3.913c-0.775,0.843-2,1.298-3.674,1.367c-1.674,0.066-2.932-0.289-3.778-1.067
	c-0.844-0.779-1.302-2.052-1.373-3.816l-0.266-6.571L129.14,36.167z M113.56,39.074c0.148-0.468,0.378-0.879,0.688-1.23
	s0.7-0.634,1.173-0.854c0.47-0.216,1.005-0.349,1.605-0.397c0.559-0.041,1.152-0.01,1.773,0.099
	c0.622,0.109,1.226,0.288,1.809,0.545l-0.992,2.385c-0.341-0.235-0.675-0.401-1.006-0.5c-0.329-0.102-0.645-0.14-0.944-0.116
	c-0.382,0.028-0.683,0.143-0.91,0.341c-0.229,0.199-0.327,0.443-0.307,0.732c0.018,0.201,0.09,0.361,0.219,0.482
	c0.133,0.121,0.296,0.222,0.5,0.3c0.201,0.08,0.43,0.148,0.68,0.196c0.251,0.051,0.497,0.109,0.745,0.17
	c0.985,0.245,1.722,0.617,2.208,1.118c0.484,0.501,0.764,1.181,0.831,2.042c0.042,0.58-0.012,1.113-0.172,1.596
	c-0.157,0.487-0.411,0.914-0.76,1.278c-0.349,0.364-0.789,0.662-1.319,0.886c-0.532,0.229-1.144,0.369-1.833,0.422
	c-1.43,0.111-2.788-0.211-4.073-0.966l1.074-2.471c0.472,0.358,0.929,0.615,1.374,0.769c0.446,0.156,0.88,0.218,1.298,0.187
	c0.481-0.038,0.828-0.177,1.046-0.413c0.218-0.239,0.317-0.498,0.293-0.78c-0.01-0.167-0.052-0.313-0.121-0.433
	c-0.072-0.122-0.179-0.229-0.329-0.321c-0.146-0.096-0.337-0.179-0.569-0.252c-0.232-0.073-0.515-0.152-0.842-0.239
	c-0.388-0.088-0.774-0.192-1.149-0.306c-0.378-0.119-0.716-0.287-1.021-0.505c-0.303-0.218-0.557-0.504-0.761-0.855
	c-0.202-0.349-0.326-0.808-0.369-1.366C113.355,40.059,113.41,39.545,113.56,39.074 M67.432,85.88H54.396V57.6h13.037V85.88z
	 M99.975,86.14H88.059h-6.518h-6.516V57.856h13.034v24.522h11.916V86.14z M126.488,108.026l-0.446-5.231l-2.453,5.045l-0.932-0.06
	l-1.686-5.309l-1.106,5.131l-2.328-0.147l2.099-8.905l2.318,0.15l1.497,4.914l2.096-4.686l2.314,0.147l0.954,9.099L126.488,108.026z
	 M130.387,86.14h-11.913h-6.52h-6.518V57.856h13.038v24.522h11.913V86.14z M137.466,108.457l-0.487-1.583l-3.347-0.106l-0.587,1.551
	l-2.5-0.08l3.715-8.905l2.556,0.077l3.15,9.126L137.466,108.457z M147.292,108.591l-5.155-0.043l0.075-9.016l2.343,0.018
	l-0.056,7.034l2.809,0.021L147.292,108.591z M131.62,72.212c0-7.779,7.575-14.626,21.503-14.626
	c14.193,0,21.595,6.444,21.595,14.218c-0.089,8.126-8.624,14.336-21.509,14.336C136.843,86.14,131.449,78.071,131.62,72.212
	 M155.695,108.51l-0.563-1.56l-3.348,0.048l-0.518,1.573l-2.499,0.037l3.302-9.066l2.56-0.038l3.563,8.97L155.695,108.51z
	 M170.409,107.951l-2.391,0.112L166,102.928l-1.518,5.306l-2.391,0.113l-3.114-8.88l2.447-0.117l1.831,5.745l1.633-5.909l1.867-0.09
	l2.185,5.729l1.278-5.894l2.45-0.117L170.409,107.951z M175.159,107.619l-0.68-8.994l2.34-0.175l0.677,8.992L175.159,107.619z
	 M194.147,86.14l-21.651-28.258h15.243l10.228,15.146l10.529-15.157h5.195L194.147,86.14z M233.399,86.14
	c-16.374,0-21.771-8.068-21.597-13.928c0-7.779,7.579-14.626,21.506-14.626c14.195,0,21.59,6.444,21.59,14.218
	C254.816,79.93,246.283,86.14,233.399,86.14"/>
<path fill="#FFFFFF" d="M232.786,60.702c-5.571,0.118-8.445,4.529-8.267,11.318c0.258,7.253,4.347,10.91,9.051,10.793
	c5.312-0.116,8.535-3.425,8.188-11.2C241.583,65.522,238.707,60.589,232.786,60.702"/>
</svg>
